<svg xmlns="http://www.w3.org/2000/svg" width="256" height="256"><path fill-opacity=".016" d="M0 128.004v128.004l128.25-.254 128.25-.254.254-127.75L257.008 0H0v128.004m.485.496c0 70.4.119 99.053.265 63.672.146-35.38.146-92.98 0-128C.604 29.153.485 58.1.485 128.5" fill="#0076FF" fill-rule="evenodd"/><path fill-opacity=".574" d="M0 128.004v128.004l128.25-.254 128.25-.254.254-127.75L257.008 0H0v128.004m.485.496c0 70.4.119 99.053.265 63.672.146-35.38.146-92.98 0-128C.604 29.153.485 58.1.485 128.5m149.837-43.681c-9.812 2.325-11.231 2.925-11.611 4.915-.339 1.773.026 2.269 1.678 2.281 5.302.039 5.287.341-1.237 25.716-3.384 13.159-6.152 25.545-6.152 27.526 0 3.799 2.019 6.669 4.821 6.854 6.395.421 10.455-1.418 17.336-7.855 5.049-4.723 5.649-6.05 3.639-8.06-.938-.938-2.041-.387-5 2.503L150 142.406l.07-3.453c.039-1.899 3.343-14.928 7.342-28.953 4.939-17.319 6.963-25.901 6.308-26.75-1.155-1.496.218-1.657-13.398 1.569M44.215 108.665C40.6 110.446 32 119.473 32 121.486c0 .698.641 1.801 1.425 2.452 1.149.954 1.864.59 3.688-1.878 4.41-5.964 4.885-4.831 6.892 16.44.519 5.5.955 10.787.969 11.75.022 1.485 1.013 1.75 6.544 1.75h6.518l9.302-9.25C78.255 131.895 83 123.742 83 115.84c0-6.132-2.383-8.846-7.75-8.826-8.006.029-8.05.087-7.49 9.919.582 10.194-1.073 16.634-5.684 22.124l-2.891 3.443-.529-2.5c-.291-1.375-.762-7.703-1.046-14.062-.513-11.476-1.642-16.702-3.923-18.152-1.93-1.228-5.956-.854-9.472.879m62.533-.238c-10.434 3.723-17.984 13.798-19.299 25.749-.773 7.027 2.297 13.316 7.887 16.159 8.177 4.158 20.663 1.347 28.172-6.343 3.741-3.831 3.769-3.92 2.09-6.483l-1.703-2.599-2.993 2.519c-4.054 3.411-10.179 5.022-13.148 3.459-5.523-2.909-5.002-5.973 1.43-8.418 17.056-6.482 24.586-17.98 15.431-23.563-3.709-2.261-12.234-2.491-17.867-.48m76 0c-11.375 4.059-19.868 17.944-18.485 30.218.975 8.644 7 13.555 16.63 13.555 15.459 0 27.607-12.63 27.607-28.7 0-8.106-2.145-12.154-7.881-14.877-4.108-1.949-12.695-2.043-17.871-.196m-75.669 8.419c-1.114 2.184-2.335 5.901-2.712 8.262l-.686 4.291 3.409-2.104c6.296-3.883 9.139-13.407 4.212-14.108-1.696-.241-2.659.593-4.223 3.659m79.645-2.596c-2.951 2.224-4.983 8.992-5.48 18.25-.416 7.76-.225 9.314 1.387 11.281 1.744 2.128 2.018 2.176 4.091.712 3.09-2.18 5.278-10.364 5.278-19.74 0-7.39-1.056-11.753-2.844-11.753-.426 0-1.52.563-2.432 1.25m29.632 24.12c-3.646 3.136-3.867 8.988-.445 11.759 3.542 2.868 9.455 2.493 12.016-.764 2.872-3.651 2.6-6.991-.85-10.442-3.562-3.561-7.016-3.74-10.721-.553" fill="#0076FF" fill-rule="evenodd"/><path fill-opacity=".897" d="M0 128.004v128.004l128.25-.254 128.25-.254.254-127.75L257.008 0H0v128.004m.485.496c0 70.4.119 99.053.265 63.672.146-35.38.146-92.98 0-128C.604 29.153.485 58.1.485 128.5M149.12 84.511c-5.159 1.26-9.771 2.899-10.249 3.64-1.608 2.497-.45 4.34 2.933 4.666 2.556.246 3.17.691 2.756 2-1.439 4.555-10.594 40.869-11.629 46.13-1.027 5.216-.966 6.351.455 8.519.902 1.376 2.799 2.793 4.217 3.149 5.518 1.385 15.428-3.856 20.929-11.068 2.66-3.488 2.687-3.648.924-5.596-1.804-1.992-1.841-1.981-5.636 1.725-2.101 2.051-3.82 3.273-3.82 2.715 0-1.468 3.359-14.123 9.628-36.271 3.017-10.66 5.249-19.997 4.96-20.75-.709-1.848-4.33-1.581-15.468 1.141M45.183 107.519C41.591 109.079 31 119.504 31 121.479c0 .666.837 1.968 1.86 2.894 1.766 1.598 2.003 1.496 4.689-2.027l2.83-3.709.818 2.454c.45 1.349 1.378 8.968 2.064 16.931l1.246 14.478 5.996.277c5.886.272 6.111.183 12.162-4.795 11.856-9.756 21.332-24.012 21.334-32.097.002-7.276-5.942-11.055-13.982-8.889-4.042 1.088-4.129 1.201-3.334 4.311 2.195 8.58-.004 21.258-4.655 26.829l-2.761 3.306-.717-11.971c-.894-14.924-1.865-19.497-4.611-21.721-2.588-2.096-4.355-2.143-8.756-.231m62.149.332c-6.714 2.32-11.836 6.297-15.45 11.996-9.988 15.75-4.616 31.821 11.016 32.952 6.889.498 14.137-2.257 20.398-7.754 3.945-3.464 4.479-5.439 2.259-8.367-1.318-1.739-1.565-1.7-5.45.871-4.742 3.139-12.103 4.369-13.799 2.307-2.92-3.549-1.99-4.885 5.626-8.081 9.797-4.112 17.082-10.886 17.036-15.841-.04-4.302-1.679-6.497-6.288-8.423-4.692-1.961-8.964-1.866-15.348.34m75.833 0c-10.766 3.832-19.283 15.863-19.53 27.588-.164 7.785 2.256 12.222 8.35 15.311 10.13 5.135 23.859.877 31.241-9.689 4.402-6.301 5.761-10.52 5.768-17.91.011-10.206-4.876-15.606-15.064-16.645-3.935-.401-6.898-.031-10.765 1.345m-75.075 8.242c-1.941 3.191-3.744 10.586-2.81 11.521.264.263 2.138-1.085 4.164-2.997 3.166-2.986 3.641-4.002 3.371-7.219-.409-4.858-2.255-5.368-4.725-1.305m77.442.157c-4.741 6.745-5.62 28.75-1.148 28.75 1.84 0 4.127-2.897 5.526-7 1.821-5.341 2.578-19.22 1.19-21.813-1.502-2.806-3.568-2.783-5.568.063m29.923 22.205c-3.614 3.614-3.354 8.61.622 11.956 5.947 5.005 13.923 1.722 13.923-5.731 0-7.971-8.964-11.807-14.545-6.225" fill="#0076FF" fill-rule="evenodd"/><path fill-opacity=".818" d="M152.271 5.75c-.091 5.236-1.741 20.601-2.604 24.25-.195.825-.662 2.85-1.039 4.5-.981 4.3-3.631 13.26-5.472 18.5-3.409 9.702-14.577 30.382-20.153 37.317-.524.651-3.23 3.996-6.014 7.433l-5.062 6.25h4.978c2.737 0 5.187.337 5.444.75.256.412-2.53.687-6.191.609l-6.658-.14 6.5.711c3.575.391 7.361 1.093 8.414 1.56 1.502.667 1.737.544 1.09-.57-.489-.842-.454-1.081.086-.587.5.459.91 1.359.91 2 0 .642.62 1.167 1.378 1.167 1.895 0 2.268 6.198.613 10.168-.726 1.743-1.134 3.431-.906 3.75.228.32.119.361-.243.091-1.087-.812-3.371 1.629-2.671 2.854.357.625.286.808-.158.406-1.025-.927-8.609 3.267-7.92 4.381.281.455-.261.531-1.205.169-1.256-.483-1.497-.304-.898.666.527.852.431 1.084-.27.651-1.559-.964-9.22 2.318-9.22 3.95 0 2.34 4.481 4.579 7.644 3.819 4.655-1.118 8.481-3.394 7.734-4.602-.401-.649-.235-.832.398-.441.597.369 1.368.213 1.714-.346 1.038-1.679 1.984-1.176 3.908 2.08l1.829 3.097-4.265 4.345c-5.545 5.65-12.812 8.801-19.712 8.548-7.575-.279-10.135-.534-9.701-.969.588-.587-4.895-4.654-5.854-4.342-.464.151-.588-.139-.276-.644.312-.505-.154-2.647-1.037-4.759-4.484-10.732 4.12-27.811 17.118-33.98 2.75-1.305 4.42-2.377 3.71-2.382-2.553-.02-8.897 3.912-13.167 8.159-5.019 4.992-8.574 12.065-9.988 19.874l-.989 5.457.396-5c.218-2.75.737-5.9 1.154-7 .678-1.788.577-1.852-.953-.607-2.25 1.83-3.123.836-1.663-1.893.639-1.194 1.002-2.331.807-2.526-.195-.196-1.67 2.156-3.278 5.226-1.607 3.07-6.529 9.456-10.938 14.191-4.409 4.735-6.48 7.259-4.604 5.609 5.089-4.474 11.164-11.241 14.259-15.882 1.51-2.265 2.747-3.749 2.75-3.298.018 3.486-17.677 22.574-20.698 22.327-.989-.081-1.706.353-1.595.963.133.724-2.531 1.177-7.66 1.3l-7.863.19-.642-7.8c-.994-12.061-1.462-12.81-1.126-1.8.168 5.5.115 8.536-.117 6.747-.369-2.843-.729-3.19-2.859-2.75-2.418.499-7.477 1.696-8.436 1.996-2.834.886-20.754 2.791-26.25 2.791L0 152.283V256h127.941c84.772 0 128.151-.34 128.563-1.007.342-.553.298-58.153-.098-128L255.685 0H152.371l-.1 5.75m6.517 75.098c1.6 1.015-8.506 3.426-11.927 2.845-1.299-.221-1.686-.169-.861.114.848.292-.429 1.003-2.937 1.637-3.512.887-4.584 1.674-5.146 3.775-.837 3.128-.372 3.781 2.691 3.781 1.251 0 2.538.427 2.86.949.845 1.367-1.531 10.13-2.572 9.487-.48-.297-.631.09-.336.859.295.77-1.51 9.55-4.012 19.512-5.109 20.345-5.476 24.265-2.548 27.193 4.779 4.779 13.718 2.034 22.434-6.891 4.678-4.789 4.864-5.183 3.581-7.58-1.772-3.312-2.802-3.192-6.152.721-2.382 2.783-2.787 2.963-2.821 1.25-.029-1.499 10.479-40.306 14.52-53.623.337-1.113-.586-2.135-2.936-3.25-3.565-1.692-6.082-2.203-3.838-.779m-22.709 7.735c.048 1.165.285 1.402.604.605.289-.722.253-1.585-.079-1.917-.332-.332-.568.258-.525 1.312m1.921 5.8c0 .211 1.125.599 2.5.862s2.5.09 2.5-.384c0-.473-1.125-.861-2.5-.861s-2.5.173-2.5.383m-89.75 11.306c.962.252 2.538.252 3.5 0 .962-.251.175-.457-1.75-.457s-2.712.206-1.75.457m20 .342c-1.237.498-2.25 1.171-2.25 1.496 0 .325.496.285 1.101-.09.606-.374 3.418-1.019 6.25-1.434 4.841-.708 4.91-.757 1.149-.815-2.2-.034-5.013.346-6.25.843m-13.04 1.476c.39.605 1.149 2.201 1.686 3.547.618 1.546 1.001 1.843 1.041.807.034-.902-.725-2.498-1.687-3.547-.962-1.05-1.431-1.413-1.04-.807m25.909.388c1.785 1.446 2.488 3.283 2.964 7.75l.623 5.855.147-5.115c.146-5.091-2.421-10.385-5.036-10.385-.571 0 .015.853 1.302 1.895m101.629-.468C168.15 112.636 158.914 131.929 165 144.5c5.69 11.754 25.13 11.676 36.026-.144 9.703-10.527 11.732-26.566 4.24-33.518-5.133-4.762-14.679-6.209-22.518-3.411M36.462 113.25 31.5 118.5l5.25-4.962c2.888-2.73 5.25-5.092 5.25-5.25 0-.747-.926.084-5.538 4.962m28.617-2.667c.048 1.165.285 1.402.604.605.289-.722.253-1.585-.079-1.917-.332-.332-.568.258-.525 1.312m1.114 8.485c-.219 7.468-2.478 16.094-4.696 17.935-1.308 1.085-1.522.122-1.696-7.631l-.198-8.872-.35 7.488c-.193 4.119-.069 8.608.274 9.976l.624 2.487 1.928-2.476c3.068-3.94 5.06-12.122 4.663-19.152l-.357-6.323-.192 6.568M58.232 117c0 1.925.206 2.713.457 1.75.252-.963.252-2.537 0-3.5-.251-.963-.457-.175-.457 1.75m50.807-1.546c-1.357 1.634-4.264 10.654-3.636 11.282.223.224 1.815-.863 3.536-2.415 3.579-3.225 5.514-10.321 2.814-10.321-.829 0-2.051.654-2.714 1.454m78.25-.654c-2.413 1.533-4.559 8.88-5.047 17.275-.578 9.933.587 13.622 3.766 11.921 2.75-1.472 4.992-10.05 4.992-19.096 0-10.101-.702-12.012-3.711-10.1m-78.335 2.286c-.614 1.147-.896 2.306-.626 2.575.269.269.805-.504 1.19-1.718.548-1.725.892-1.905 1.576-.825.694 1.096.879 1.02.891-.368.021-2.391-1.672-2.204-3.031.336m-70.549 5.147c-1.322 1.549-1.399 1.843-.252.958 1.341-1.034 1.75-1.031 2.171.017.285.711.554.279.597-.958.098-2.797-.143-2.798-2.516-.017m71.165-.554c-.574 1.494-.816 1.541-1.58.306-.689-1.115-.862-.929-.732.786.168 2.239.175 2.24 2.15.266 1.089-1.09 1.724-2.238 1.41-2.552-.314-.314-.876.223-1.248 1.194m-79.57.699c0 .207.788.995 1.75 1.75 1.586 1.243 1.621 1.208.378-.378-1.307-1.666-2.128-2.195-2.128-1.372M41.272 129c0 2.475.195 3.488.434 2.25.238-1.238.238-3.263 0-4.5-.239-1.237-.434-.225-.434 2.25M120 129c-.901.582-1.025.975-.309.985.655.008 1.469-.435 1.809-.985.767-1.242.421-1.242-1.5 0m95.816 8.873c-6.55 5.853-2.779 15.127 6.151 15.127 3.077 0 4.378-.621 6.444-3.077 1.424-1.692 2.589-3.921 2.589-4.953 0-5.052-4.9-9.97-9.935-9.97-1.118 0-3.481 1.293-5.249 2.873M.465 204c0 28.875.128 40.687.284 26.25.156-14.438.156-38.063 0-52.5C.593 163.312.465 175.125.465 204m46.263-49.278c1.775.221 4.925.224 7 .008 2.074-.217.622-.397-3.228-.402-3.85-.004-5.548.173-3.772.394" fill="#0076FF" fill-rule="evenodd"/></svg>