<svg xmlns="http://www.w3.org/2000/svg" xmlns:xlink="http://www.w3.org/1999/xlink" width="234.17" height="83.093" viewBox="0 0 234.17 83.093">
  <defs>
    <clipPath id="clip-path">
      <rect id="Rectangle_19209" data-name="Rectangle 19209" width="234.17" height="83.093" transform="translate(0 0)" fill="#0b60ff"/>
    </clipPath>
  </defs>
  <g id="Group_73777" data-name="Group 73777" transform="translate(0 0)">
    <g id="Group_73776" data-name="Group 73776" clip-path="url(#clip-path)">
      <path id="Path_62587" data-name="Path 62587" d="M19.1,66.309c-1.347,8.807-1.347,12.744,3.108,12.744,9.325,0,27.042-17.407,27.042-30.669,0-4.454-2.279-7.46-6.32-7.46a7.742,7.742,0,0,0-7.253,4.559c-5.284-.31-7.874-3.522-7.874-7.873a11.057,11.057,0,0,1,11.19-11.4c6.32,0,12.743,4.973,12.743,16.162,0,21.551-20.617,40.511-39.267,40.511-9.428,0-13.78-4.973-12.122-15.23L5.733,34.087c.311-2.072-1.347-3.626-4.248-2.694l-.311-.311c3.626-1.761,10.879-4.04,15.852-4.04,5.905,0,7.978,2.175,6.838,9.221Z" fill="#0b60ff"/>
      <path id="Path_62588" data-name="Path 62588" d="M92.863,34.6c0-4.041-2.486-6.734-6.009-6.734-7.977,0-13.676,12.536-14.3,23-.621,10.983,3.316,20.618,14.816,20.618a20.806,20.806,0,0,0,15.955-7.356l.622.311C97.422,75.219,86.44,82.886,74.422,82.886c-12.537,0-21.448-8.289-21.448-22.172C52.974,43,68.1,27.042,87.786,27.042c8.082,0,19.893,1.968,19.893,11.6,0,7.667-8.91,17.716-34.4,10.982l.1-.415c13.987.726,19.478-7.252,19.478-14.608" fill="#0b60ff"/>
      <path id="Path_62589" data-name="Path 62589" d="M117.309,34.087c.311-2.072-1.347-3.626-4.248-2.694l-.311-.31c3.626-1.762,10.879-4.041,15.851-4.041,5.907,0,8.29,2.175,6.839,9.221l-5.7,23.415.415.1c6.942-26.524,17.3-32.74,26.627-32.74,12.951,0,12.122,10.671,10.879,17.82l-2.487,14.712c-1.554,8.91-2.487,20.514,2.072,22.276l-.311.311a37.569,37.569,0,0,1-7.563.829c-8.6,0-15.748-3.73-13.676-16.785l4.145-25.694c.724-4.87.724-7.875-1.762-7.875-5.8,0-12.951,11.915-16.784,27.353-1.762,7.149-4.662,20.1-1.14,21.861l-.311.311a58.046,58.046,0,0,1-8.7.829c-8.185,0-11.914-3.523-9.635-16.267Z" fill="#0b60ff"/>
      <path id="Path_62590" data-name="Path 62590" d="M198.945,27.767H206.2l-.207,1.036h-7.15l-5.18,31.289c-1.45,8.91-2.487,20.515,2.072,22.276l-.31.311a35.969,35.969,0,0,1-5.078.414c-7.977,0-18.13-2.9-15.851-16.37l5.9-37.92h-4.662l.207-1.036c14.92,0,23-4.973,25.384-19.686h.932Z" fill="#0b60ff"/>
      <path id="Path_62591" data-name="Path 62591" d="M209.407,34.087c.312-2.072-1.346-3.626-4.247-2.694l-.311-.31c3.627-1.762,10.879-4.041,15.852-4.041,5.906,0,7.978,2.175,6.838,9.221L223.6,60.092c-1.243,7.253-3.626,20,.208,21.758l-.312.311a39.247,39.247,0,0,1-7.563.829c-7.874,0-14.09-3.523-11.914-16.267Zm4.56-11.4c2.176-3.419,3.212-11.293.1-15.23C216.557,2.9,221.322,0,225.571,0c3.937,0,8.6,2.383,8.6,8.185,0,8.082-9.325,15.231-20,14.816Z" fill="#0b60ff"/>
    </g>
  </g>
</svg>
