<?xml version="1.0" encoding="UTF-8"?><svg id="Layer_2" xmlns="http://www.w3.org/2000/svg" viewBox="0 0 363.14 140.73"><defs><style>.cls-1{isolation:isolate;}.cls-2{fill:#ffffff;stroke-width:0px;}</style></defs><g id="Layer_1-2"><g id="Velo" class="cls-1"><g class="cls-1"><path class="cls-2" d="m102.14,43.5l-35,94.58h-32.15L0,43.5h31.4l19.67,59.96,19.67-59.96h31.4Z"/><path class="cls-2" d="m156.8,115.38c7.75,0,14.37-3.03,18.16-7.19l22.7,13.05c-9.27,12.86-23.27,19.48-41.24,19.48-32.34,0-52.4-21.75-52.4-49.94s20.43-49.94,50.32-49.94c27.61,0,48.04,21.38,48.04,49.94,0,3.97-.38,7.76-1.13,11.35h-67.15c3.59,9.83,12.29,13.24,22.7,13.24Zm17.4-34.43c-3.03-10.97-11.54-14.94-20.05-14.94-10.78,0-17.97,5.3-20.62,14.94h40.67Z"/><path class="cls-2" d="m218.45,0h28.38v138.08h-28.38V0Z"/><path class="cls-2" d="m262.89,90.79c0-28.18,22.32-49.94,50.12-49.94s50.13,21.75,50.13,49.94-22.32,49.94-50.13,49.94-50.12-21.75-50.12-49.94Zm71.88,0c0-13.43-9.46-22.32-21.75-22.32s-21.75,8.89-21.75,22.32,9.46,22.32,21.75,22.32,21.75-8.89,21.75-22.32Z"/></g></g></g></svg>
