<svg xmlns="http://www.w3.org/2000/svg" width="514.098" height="143.5" viewBox="0 0 514.098 143.5">
  <g id="Group_73360" data-name="Group 73360" transform="translate(-686 -792)">
    <path id="Path_62354" data-name="Path 62354" d="M42.347,0,42.3,42.347a42.362,42.362,0,0,1-29.912-12.42A42.361,42.361,0,0,1,0,0Z" transform="translate(898.046 852.104) rotate(-65)" fill="#3dddaa"/>
    <path id="Path_62353" data-name="Path 62353" d="M0,0A41.315,41.315,0,0,1,41.315,41.315,41.315,41.315,0,0,1,0,82.631" transform="translate(1017.839 935.5) rotate(-90)" fill="#fdcc00"/>
    <path id="Path_62355" data-name="Path 62355" d="M1060.494,1919.563a7.571,7.571,0,1,0-7.571-7.571,7.572,7.572,0,0,0,7.571,7.571" transform="translate(-185.306 -1000.422)" fill="#4babfd"/>
    <path id="Path_62351" data-name="Path 62351" d="M143.5,143.5,143.334,0A143.5,143.5,0,0,0,0,143.5Z" transform="translate(829.5 792) rotate(90)" fill="#f55050"/>
    <path id="Path_62352" data-name="Path 62352" d="M1107.234,2013.036a54.307,54.307,0,1,0-54.311-54.31,54.317,54.317,0,0,0,54.311,54.31" transform="translate(38.554 -1112.422)" fill="#0b60ff"/>
  </g>
</svg>
