<svg xmlns="http://www.w3.org/2000/svg" viewBox="0 0 18.938 16.744">
  <g id="Add_Contacts" data-name="Add Contacts" transform="translate(1.091 1)">
    <g id="Add" transform="translate(11.772 0.76)">
      <line id="Line_557" data-name="Line 557" x2="6.076" transform="translate(0 3.038)" fill="none" stroke="###FILL###" stroke-miterlimit="10" stroke-width="2"/>
      <line id="Line_558" data-name="Line 558" y1="6.076" transform="translate(3.038 0)" fill="none" stroke="###FILL###" stroke-miterlimit="10" stroke-width="2"/>
    </g>
    <g id="Group_70088" data-name="Group 70088" transform="translate(0 0)">
      <path id="Path_58353" data-name="Path 58353" d="M597.789,1482.885a2.906,2.906,0,0,0-5.813,0c.018.323.323,1.923.323,1.923a2.584,2.584,0,0,0,5.167,0S597.775,1483.208,597.789,1482.885Z" transform="translate(-587.715 -1480)" fill="none" stroke="###FILL###" stroke-miterlimit="10" stroke-width="2"/>
      <path id="Path_58354" data-name="Path 58354" d="M595.334,1509.488H581l.242-2.784a2.654,2.654,0,0,1,2.284-2l4.64-.613,4.689.627c1.215.216,2.239.888,2.317,2.113Z" transform="translate(-581 -1494.745)" fill="none" stroke="###FILL###" stroke-miterlimit="10" stroke-width="2"/>
    </g>
  </g>
</svg>
