<svg xmlns="http://www.w3.org/2000/svg" viewBox="0 0 22.053 23.962">
  <g id="Bell" transform="translate(1 1)">
    <path id="Path_57972" data-name="Path 57972" d="M123.053,6172.3v1.842H103V6172.3a4.776,4.776,0,0,1,1.4-3.376l1.978-1.977a4.777,4.777,0,0,0,1.4-3.376v-2.32a5.252,5.252,0,0,1,5.252-5.251h0a5.252,5.252,0,0,1,5.252,5.251v2.32a4.777,4.777,0,0,0,1.4,3.376l1.978,1.977A4.776,4.776,0,0,1,123.053,6172.3Z" transform="translate(-103 -6156)" fill="none" stroke="###FILL###" stroke-miterlimit="10" stroke-width="2"/>
    <path id="Path_57973" data-name="Path 57973" d="M118,6194v.955a2.864,2.864,0,0,0,2.865,2.864h0a2.864,2.864,0,0,0,2.865-2.864V6194" transform="translate(-110.838 -6175.856)" fill="none" stroke="###FILL###" stroke-miterlimit="10" stroke-width="2"/>
  </g>
</svg>
