<svg xmlns="http://www.w3.org/2000/svg" viewBox="0 0 25.389 24.792">
  <g id="Box_-_In" data-name="Box - In" transform="translate(1.051)">
    <g id="Group_70084" data-name="Group 70084" transform="translate(7.087 0)">
      <line id="Line_555" data-name="Line 555" y2="11" transform="translate(4.913)" fill="none" stroke="###FILL###" stroke-miterlimit="10" stroke-width="2"/>
      <path id="Path_58333" data-name="Path 58333" d="M715,1608l4.556,4.556,4.556-4.556" transform="translate(-715 -1601.419)" fill="none" stroke="###FILL###" stroke-miterlimit="10" stroke-width="2"/>
    </g>
    <g id="Inbox" transform="translate(0 8.606)">
      <path id="Path_58334" data-name="Path 58334" d="M720.237,1612h0l4.05,6.075-.955,5.728a4.05,4.05,0,0,1-3.995,3.384H705.949a4.049,4.049,0,0,1-3.995-3.384l-.955-5.728,4.05-6.075h0" transform="translate(-701 -1612)" fill="none" stroke="###FILL###" stroke-miterlimit="10" stroke-width="2"/>
      <path id="Path_58335" data-name="Path 58335" d="M701,1624h8.1l.317,1.11a3.356,3.356,0,0,0,3.227,2.434h0a3.355,3.355,0,0,0,3.227-2.434l.317-1.11h8.1" transform="translate(-701 -1617.925)" fill="none" stroke="###FILL###" stroke-miterlimit="10" stroke-width="2"/>
    </g>
  </g>
</svg>
