<svg xmlns="http://www.w3.org/2000/svg" width="23.687" height="29.529" viewBox="0 0 23.687 29.529">
  <g id="Group_73718" data-name="Group 73718" transform="translate(-1512 -877)">
    <g id="Clipboard" transform="translate(1513 878)">
      <rect id="Rectangle_6060" data-name="Rectangle 6060" width="21.544" height="23.938" transform="translate(0 3.591)" fill="none" stroke="###FILL###" stroke-miterlimit="10" stroke-width="2"/>
      <path id="Path_58385" data-name="Path 58385" d="M480,1047.591v-1.2a2.394,2.394,0,0,1,2.394-2.394h0a2.394,2.394,0,0,1,2.394,2.394v1.2" transform="translate(-471.622 -1044)" fill="none" stroke="###FILL###" stroke-miterlimit="10" stroke-width="2"/>
      <path id="Path_58386" data-name="Path 58386" d="M485.772,1050v2.387a1.2,1.2,0,0,1-1.2,1.2H476.2a1.2,1.2,0,0,1-1.2-1.2V1050" transform="translate(-469.614 -1046.409)" fill="none" stroke="###FILL###" stroke-miterlimit="10" stroke-width="2"/>
    </g>
    <g id="Group_73717" data-name="Group 73717" transform="translate(1515.992 888.772)">
      <line id="Line_559" data-name="Line 559" x2="15.56" transform="translate(0 0)" fill="none" stroke="###FILL###" stroke-miterlimit="10" stroke-width="2"/>
      <line id="Line_560" data-name="Line 560" x2="15.56" transform="translate(0 4.788)" fill="none" stroke="###FILL###" stroke-miterlimit="10" stroke-width="2"/>
      <line id="Line_561" data-name="Line 561" x2="11.969" transform="translate(0 9.575)" fill="none" stroke="###FILL###" stroke-miterlimit="10" stroke-width="2"/>
    </g>
    <g id="Pencil" transform="matrix(0.951, -0.309, 0.309, 0.951, 1519.391, 883.353)">
      <path id="Path_58417" data-name="Path 58417" d="M3.849,9.208,0,10.683,1.475,6.834,8.309,0l2.374,2.374Z" transform="translate(0 3.082)" fill="#fff" stroke="###FILL###" stroke-miterlimit="10" stroke-width="2"/>
      <path id="Path_58418" data-name="Path 58418" d="M2.374,4.161,0,1.787,1.295.492a1.679,1.679,0,0,1,2.374,0h0a1.679,1.679,0,0,1,0,2.374Z" transform="translate(9.604 0)" fill="#fff" stroke="###FILL###" stroke-miterlimit="10" stroke-width="2"/>
    </g>
  </g>
</svg>
