<svg xmlns="http://www.w3.org/2000/svg" viewBox="0 0 22.942 20.404">
  <g id="Add_Contacts" data-name="Add Contacts" transform="translate(1.091 0.364)">
    <g id="Add" transform="translate(18.404 0) rotate(45)">
      <line id="Line_557" data-name="Line 557" x2="7.749" transform="translate(0 3.875)" fill="none" stroke="###FILL###" stroke-miterlimit="10" stroke-width="2"/>
      <line id="Line_558" data-name="Line 558" y1="7.749" transform="translate(3.875 0)" fill="none" stroke="###FILL###" stroke-miterlimit="10" stroke-width="2"/>
    </g>
    <g id="Group_70088" data-name="Group 70088" transform="translate(0 0.636)">
      <path id="Path_58353" data-name="Path 58353" d="M599.233,1483.6a3.628,3.628,0,0,0-7.256,0c.023.4.4,2.4.4,2.4.314,1.734,1.444,3.2,3.225,3.2s2.889-1.445,3.225-3.2C598.83,1486,599.216,1484,599.233,1483.6Z" transform="translate(-586.658 -1480)" fill="none" stroke="###FILL###" stroke-miterlimit="10" stroke-width="2"/>
      <path id="Path_58354" data-name="Path 58354" d="M598.893,1510.828H581l.3-3.475a3.313,3.313,0,0,1,2.852-2.5l5.792-.765,5.854.783c1.516.269,2.795,1.109,2.893,2.637Z" transform="translate(-581 -1492.424)" fill="none" stroke="###FILL###" stroke-miterlimit="10" stroke-width="2"/>
    </g>
  </g>
</svg>
