<svg xmlns="http://www.w3.org/2000/svg" viewBox="0 0 28.643 28.643">
  <g id="Settings" transform="translate(-340 -731)">
    <circle id="Ellipse_594" data-name="Ellipse 594" cx="4" cy="4" r="4" transform="translate(350 741)" fill="none" stroke="###FILL###" stroke-miterlimit="10" stroke-width="2"/>
    <path id="Path_58438" data-name="Path 58438" d="M367.643,747.234v-3.968l-2.312-.169a2.464,2.464,0,0,1-2.1-1.519l-.013-.031a2.466,2.466,0,0,1,.409-2.559l1.515-1.756-2.806-2.806-1.756,1.516a2.465,2.465,0,0,1-2.558.411l-.03-.013a2.413,2.413,0,0,1-1.52-2.064L356.3,732h-3.968l-.17,2.279a2.437,2.437,0,0,1-1.517,2.081c-.01,0-.019,0-.028,0a2.467,2.467,0,0,1-2.56-.414l-1.758-1.52-2.806,2.805,1.518,1.758a2.466,2.466,0,0,1,.409,2.558l-.011.027a2.464,2.464,0,0,1-2.1,1.519l-2.314.17v3.968l2.313.17a2.465,2.465,0,0,1,2.1,1.519l.012.029a2.467,2.467,0,0,1-.41,2.559l-1.517,1.757,2.806,2.806,1.757-1.516a2.465,2.465,0,0,1,2.558-.41l.03.012a2.514,2.514,0,0,1,1.519,2.134l.169,2.348H356.3l.17-2.347a2.488,2.488,0,0,1,1.519-2.116c.01,0,.021-.017.031-.021a2.464,2.464,0,0,1,2.558.405l1.757,1.513,2.806-2.807-1.515-1.756a2.467,2.467,0,0,1-.41-2.559l.013-.031a2.462,2.462,0,0,1,2.1-1.519Z" fill="none" stroke="###FILL###" stroke-miterlimit="10" stroke-width="2"/>
  </g>
</svg>
