<svg xmlns="http://www.w3.org/2000/svg" viewBox="0 0 24.918 23.963">
  <g id="Store" transform="translate(1 1)">
    <path id="Path_58307" data-name="Path 58307" d="M363.053,2123v7.162a3.82,3.82,0,0,1-3.82,3.82H346.82a3.82,3.82,0,0,1-3.82-3.82V2123" transform="translate(-341.567 -2112.019)" fill="none" stroke="###FILL###" stroke-miterlimit="10" stroke-width="2"/>
    <path id="Path_58308" data-name="Path 58308" d="M361.008,2100h-19.1s-1.91,8.164-1.91,8.594a2.865,2.865,0,1,0,5.729,0,2.865,2.865,0,1,0,5.729,0,2.865,2.865,0,0,0,5.729,0,2.865,2.865,0,1,0,5.729,0C362.918,2108.164,361.008,2100,361.008,2100Z" transform="translate(-340 -2100)" fill="none" stroke="###FILL###" stroke-miterlimit="10" stroke-width="2"/>
    <rect id="Rectangle_6056" data-name="Rectangle 6056" width="3.82" height="5.729" transform="translate(9.549 16.233)" fill="none" stroke="###FILL###" stroke-miterlimit="10" stroke-width="2"/>
  </g>
</svg>
