<svg xmlns="http://www.w3.org/2000/svg" viewBox="0 0 28.153 20.143">
  <g id="Users" transform="translate(1.091 1.001)">
    <g id="Group_70085" data-name="Group 70085" transform="translate(0 -0.001)">
      <path id="Path_58340" data-name="Path 58340" d="M474.894,1483.55a3.577,3.577,0,0,0-7.153,0c.023.4.4,2.366.4,2.366.309,1.709,1.423,3.156,3.179,3.156s2.848-1.424,3.179-3.156C474.5,1485.916,474.877,1483.948,474.894,1483.55Z" transform="translate(-462.497 -1480)" fill="none" stroke="###FILL###" stroke-miterlimit="10" stroke-width="2"/>
      <path id="Path_58341" data-name="Path 58341" d="M474.4,1510.732H456.764l.3-3.426a3.266,3.266,0,0,1,2.811-2.461l5.71-.754,5.771.772c1.495.266,2.755,1.093,2.852,2.6Z" transform="translate(-456.764 -1492.589)" fill="none" stroke="###FILL###" stroke-miterlimit="10" stroke-width="2"/>
    </g>
    <g id="Group_70086" data-name="Group 70086" transform="translate(15.981 3.103)">
      <path id="Path_58342" data-name="Path 58342" d="M495.963,1489.3a2.862,2.862,0,0,0-5.722,0c.018.313.318,1.868.318,1.868a2.544,2.544,0,0,0,5.086,0S495.949,1489.617,495.963,1489.3Z" transform="translate(-490.236 -1486.5)" fill="none" stroke="###FILL###" stroke-miterlimit="10" stroke-width="2"/>
      <path id="Path_58343" data-name="Path 58343" d="M496.236,1506l4.715.567a2.464,2.464,0,0,1,2.284,2.087l.162,3.076h-5.491" transform="translate(-493.371 -1496.69)" fill="none" stroke="###FILL###" stroke-miterlimit="10" stroke-width="2"/>
    </g>
  </g>
</svg>
