<svg xmlns="http://www.w3.org/2000/svg" width="136.155" height="50.625" viewBox="0 0 136.155 50.625">
  <g id="Group_73342" data-name="Group 73342" style="isolation: isolate">
    <path id="Path_59216" data-name="Path 59216" d="M161.289,388.082l-.785-10.559c-.238-3.329-.4-5.479-.709-7.715s-.654-4.233-1.034-5.993a17.238,17.238,0,0,0-3.964,4.558l-2.662-2.6a24.7,24.7,0,0,1,3.7-4.525,22.9,22.9,0,0,1,4.423-3.639,8.012,8.012,0,0,1,4.137-1.355,4.293,4.293,0,0,1,2.818.856,4.927,4.927,0,0,1,1.462,2.854,43.562,43.562,0,0,1,.714,4.958q.356,3.461.642,8.953l.388,8.857-2,.428a36.583,36.583,0,0,0,5.029-5.493,19.445,19.445,0,0,0,3-6.1,27.581,27.581,0,0,0,.963-7.669,18.534,18.534,0,0,0-1.142-6.778,11.247,11.247,0,0,1,2.319-1.034,8.861,8.861,0,0,1,2.818-.464,6.168,6.168,0,0,1,4.6,1.569,6.381,6.381,0,0,1,1.534,4.637,15.842,15.842,0,0,1-1.676,6.707,39.863,39.863,0,0,1-4.423,7.169,58.265,58.265,0,0,1-6.064,6.778,74.056,74.056,0,0,1-6.528,5.6Z" transform="translate(-152.135 -337.456)" fill="###FILL###"/>
    <path id="Path_59217" data-name="Path 59217" d="M251.618,387.559q-5.851,0-9.1-3.1a10.958,10.958,0,0,1-3.246-8.311,21.305,21.305,0,0,1,1.605-8.275,22.378,22.378,0,0,1,4.352-6.778,20.651,20.651,0,0,1,6.314-4.6,17.412,17.412,0,0,1,7.491-1.676q4.423,0,6.706,1.712a5.358,5.358,0,0,1,2.283,4.495,7.423,7.423,0,0,1-.678,2.925,10.188,10.188,0,0,1-2.6,3.317,28.363,28.363,0,0,1-5.707,3.745,86.131,86.131,0,0,1-9.917,4.281v-4.067a22.629,22.629,0,0,0,5.707-3.175,9.022,9.022,0,0,0,2.64-3.281,8.433,8.433,0,0,0,.713-3.318,2.686,2.686,0,0,0-.535-1.82,1.772,1.772,0,0,0-1.391-.606q-1.357,0-2.747,1.856a16.162,16.162,0,0,0-2.354,5.208A28.851,28.851,0,0,0,250.19,374q0,3.21,1.32,4.673a4.438,4.438,0,0,0,3.46,1.463,12.29,12.29,0,0,0,4.423-1.07,13.564,13.564,0,0,0,4.69-3.373l2.981,2.982a21.779,21.779,0,0,1-7.886,6.848A17.706,17.706,0,0,1,251.618,387.559Z" transform="translate(-201.925 -336.995)" fill="###FILL###"/>
    <path id="Path_59218" data-name="Path 59218" d="M318.385,363.806a4.793,4.793,0,0,1-3.353-1.106,4.264,4.264,0,0,1-1.212-3.317,15.509,15.509,0,0,1,.143-2.069q.142-1.071.57-3.032t1.284-5.6l7.063-27.752-5.212-.713.789-3.139,15.856-3.835,1.455,1.455c-.9,3.187-9.914,38.808-10.032,39.616.141.237,1.13-.234,1.383-.417a30.207,30.207,0,0,0,2.952-2.786l2.748,2.716a34.274,34.274,0,0,1-4.3,4.915,23.193,23.193,0,0,1-5.065,3.674A10.87,10.87,0,0,1,318.385,363.806Z" transform="translate(-244.518 -313.242)" fill="###FILL###"/>
    <path id="Path_59219" data-name="Path 59219" d="M381.455,387.559a14.232,14.232,0,0,1-6.563-1.391,9.426,9.426,0,0,1-4.1-3.96,12.546,12.546,0,0,1-1.392-6.064,21.837,21.837,0,0,1,1.463-7.883,23.089,23.089,0,0,1,4.067-6.849,19.764,19.764,0,0,1,6.135-4.816,16.477,16.477,0,0,1,7.526-1.783,14.24,14.24,0,0,1,6.564,1.391,9.663,9.663,0,0,1,4.138,3.96,12.449,12.449,0,0,1,1.427,6.135,21.117,21.117,0,0,1-1.5,7.848,24.379,24.379,0,0,1-4.1,6.849,19.209,19.209,0,0,1-6.1,4.816A16.661,16.661,0,0,1,381.455,387.559Zm2.141-4.994a3.289,3.289,0,0,0,2.5-1.32,11.363,11.363,0,0,0,1.962-3.6,27.141,27.141,0,0,0,1.249-5.173,40.591,40.591,0,0,0,.428-5.957,14.379,14.379,0,0,0-.749-5.208q-.75-1.855-2.176-1.856a3.347,3.347,0,0,0-2.568,1.321,11.291,11.291,0,0,0-1.962,3.638,29.73,29.73,0,0,0-1.284,5.209,37.5,37.5,0,0,0-.463,5.957,12.925,12.925,0,0,0,.82,5.208Q382.168,382.565,383.6,382.565Z" transform="translate(-276.275 -336.995)" fill="###FILL###"/>
    <path id="Path_59220" data-name="Path 59220" d="M449.588,416.578a5.414,5.414,0,0,1-3.906-1.552,5.081,5.081,0,0,1-1.6-3.8,5.344,5.344,0,0,1,.749-2.836,5.765,5.765,0,0,1,2.006-1.979,5.471,5.471,0,0,1,6.662.883,5.406,5.406,0,0,1,1.605,3.932,5.08,5.08,0,0,1-1.605,3.8A5.416,5.416,0,0,1,449.588,416.578Z" transform="translate(-318.945 -366.049)" fill="###FILL###"/>
  </g>
</svg>
